<svg xmlns="http://www.w3.org/2000/svg" width="14" height="14" viewBox="0 0 14 14">
  <g id="back_Arrow" transform="translate(-191 -120)">
    <circle id="Ellisse_3" data-name="Ellisse 3" cx="7" cy="7" r="7" transform="translate(191 120)" fill="#fff"/>
    <g id="Raggruppa_10" data-name="Raggruppa 10" transform="translate(195 123)">
      <path id="Tracciato_1" data-name="Tracciato 1" d="M101.608,3.759,105.237.13a.447.447,0,0,1,.631,0l.267.267a.447.447,0,0,1,0,.631l-3.048,3.048,3.051,3.051a.447.447,0,0,1,0,.631l-.267.267a.447.447,0,0,1-.631,0l-3.633-3.633a.45.45,0,0,1,0-.633Z" transform="translate(-101.478 0)"/>
    </g>
  </g>
</svg>
