<svg xmlns="http://www.w3.org/2000/svg" width="22" height="22.017" viewBox="0 0 22 22.017">
  <g id="clapperboard" transform="translate(-0.194 0)">
    <g id="Raggruppa_16" data-name="Raggruppa 16" transform="translate(1.087 8.251)">
      <g id="Raggruppa_15" data-name="Raggruppa 15">
        <path id="Tracciato_14" data-name="Tracciato 14" d="M41.587,191.81H21.4a.459.459,0,0,0-.459.459v11.012a2.3,2.3,0,0,0,2.294,2.294H39.752a2.3,2.3,0,0,0,2.294-2.294V192.269A.459.459,0,0,0,41.587,191.81Zm-.459,11.471a1.378,1.378,0,0,1-1.377,1.377H23.233a1.378,1.378,0,0,1-1.377-1.377V192.728H41.129Z" transform="translate(-20.939 -191.81)" fill="#fff"/>
      </g>
    </g>
    <g id="Raggruppa_18" data-name="Raggruppa 18" transform="translate(0.194 0)">
      <g id="Raggruppa_17" data-name="Raggruppa 17" transform="translate(0 0)">
        <path id="Tracciato_15" data-name="Tracciato 15" d="M22.179,4,21.4,1.042A1.386,1.386,0,0,0,19.753.034L1.265,4.421A1.375,1.375,0,0,0,.237,6.1L1.1,9.515a.457.457,0,0,0,.444.346.453.453,0,0,0,.114-.014.458.458,0,0,0,.331-.557l-.05-.2,19.9-4.521A.46.46,0,0,0,22.179,4ZM1.716,8.2,1.126,5.874a.46.46,0,0,1,.347-.561L19.961.928a.414.414,0,0,1,.1-.012.464.464,0,0,1,.448.353l.662,2.51Z" transform="translate(-0.194 0)" fill="#fff"/>
      </g>
    </g>
    <g id="Raggruppa_20" data-name="Raggruppa 20" transform="translate(2.922 8.251)">
      <g id="Raggruppa_19" data-name="Raggruppa 19">
        <path id="Tracciato_16" data-name="Tracciato 16" d="M66.093,191.863a.463.463,0,0,0-.617.206l-1.835,3.671a.459.459,0,0,0,.822.41l1.835-3.671A.46.46,0,0,0,66.093,191.863Z" transform="translate(-63.593 -191.816)" fill="#fff"/>
      </g>
    </g>
    <g id="Raggruppa_22" data-name="Raggruppa 22" transform="translate(7.51 8.251)">
      <g id="Raggruppa_21" data-name="Raggruppa 21">
        <path id="Tracciato_17" data-name="Tracciato 17" d="M172.759,191.863a.461.461,0,0,0-.616.206l-1.835,3.671a.459.459,0,1,0,.821.41l1.835-3.671A.46.46,0,0,0,172.759,191.863Z" transform="translate(-170.26 -191.816)" fill="#fff"/>
      </g>
    </g>
    <g id="Raggruppa_24" data-name="Raggruppa 24" transform="translate(12.099 8.251)">
      <g id="Raggruppa_23" data-name="Raggruppa 23">
        <path id="Tracciato_18" data-name="Tracciato 18" d="M279.425,191.863a.462.462,0,0,0-.616.206l-1.835,3.671a.459.459,0,1,0,.821.41l1.835-3.671A.46.46,0,0,0,279.425,191.863Z" transform="translate(-276.926 -191.816)" fill="#fff"/>
      </g>
    </g>
    <g id="Raggruppa_26" data-name="Raggruppa 26" transform="translate(16.687 8.251)">
      <g id="Raggruppa_25" data-name="Raggruppa 25">
        <path id="Tracciato_19" data-name="Tracciato 19" d="M386.092,191.863a.461.461,0,0,0-.616.206l-1.835,3.671a.459.459,0,1,0,.821.41l1.835-3.671A.46.46,0,0,0,386.092,191.863Z" transform="translate(-383.593 -191.816)" fill="#fff"/>
      </g>
    </g>
    <g id="Raggruppa_28" data-name="Raggruppa 28" transform="translate(1.087 11.922)">
      <g id="Raggruppa_27" data-name="Raggruppa 27">
        <path id="Tracciato_20" data-name="Tracciato 20" d="M41.587,277.143H21.4a.459.459,0,0,0,0,.918h20.19a.459.459,0,0,0,0-.918Z" transform="translate(-20.939 -277.143)" fill="#fff"/>
      </g>
    </g>
    <g id="Raggruppa_30" data-name="Raggruppa 30" transform="translate(2.039 4.155)">
      <g id="Raggruppa_29" data-name="Raggruppa 29">
        <path id="Tracciato_21" data-name="Tracciato 21" d="M47.022,99.889l-3.161-3.161a.459.459,0,0,0-.649.649l3.161,3.161a.461.461,0,0,0,.325.134.454.454,0,0,0,.324-.135A.459.459,0,0,0,47.022,99.889Z" transform="translate(-43.078 -96.594)" fill="#fff"/>
      </g>
    </g>
    <g id="Raggruppa_32" data-name="Raggruppa 32" transform="translate(6.526 3.136)">
      <g id="Raggruppa_31" data-name="Raggruppa 31">
        <path id="Tracciato_22" data-name="Tracciato 22" d="M151.323,76.187l-3.163-3.161a.459.459,0,0,0-.649.649l3.162,3.161a.459.459,0,1,0,.65-.649Z" transform="translate(-147.377 -72.892)" fill="#fff"/>
      </g>
    </g>
    <g id="Raggruppa_34" data-name="Raggruppa 34" transform="translate(11.017 2.115)">
      <g id="Raggruppa_33" data-name="Raggruppa 33">
        <path id="Tracciato_23" data-name="Tracciato 23" d="M255.723,52.466,252.565,49.3a.459.459,0,0,0-.649.649l3.158,3.161a.461.461,0,0,0,.325.134.453.453,0,0,0,.324-.134A.459.459,0,0,0,255.723,52.466Z" transform="translate(-251.782 -49.17)" fill="#fff"/>
      </g>
    </g>
    <g id="Raggruppa_36" data-name="Raggruppa 36" transform="translate(15.5 1.097)">
      <g id="Raggruppa_35" data-name="Raggruppa 35">
        <path id="Tracciato_24" data-name="Tracciato 24" d="M359.937,28.786l-3.159-3.161a.459.459,0,0,0-.649.649l3.159,3.161a.459.459,0,0,0,.649-.649Z" transform="translate(-355.995 -25.49)" fill="#fff"/>
      </g>
    </g>
  </g>
</svg>
