<svg id="comment" xmlns="http://www.w3.org/2000/svg" width="44.007" height="44.007" viewBox="0 0 44.007 44.007">
  <path id="Tracciato_46" data-name="Tracciato 46" d="M39.28,6.876H37.99V3.868a3.868,3.868,0,1,0-7.736,0V4.924a3.021,3.021,0,0,1-2.182,2.893l-1.256.359v-.01a1.289,1.289,0,0,0-1.289-1.289H20.37a1.289,1.289,0,0,0-1.289,1.289v5.759H3.868A3.872,3.872,0,0,0,0,17.792V42.718A1.289,1.289,0,0,0,2,43.79l4.832-3.221H31.372A3.872,3.872,0,0,0,35.24,36.7V23.207h4.04a4.733,4.733,0,0,0,4.727-4.727V11.6A4.733,4.733,0,0,0,39.28,6.876ZM21.66,9.455h2.579V20.628H21.66Zm11,27.246a1.291,1.291,0,0,1-1.289,1.289H6.446a1.289,1.289,0,0,0-.715.217l-3.153,2.1V17.792A1.291,1.291,0,0,1,3.868,16.5H19.081v5.415a1.289,1.289,0,0,0,1.289,1.289h5.157a1.289,1.289,0,0,0,1.28-1.143,7.261,7.261,0,0,0,3.9,1.143h1.95Zm8.767-18.222a2.151,2.151,0,0,1-2.149,2.149H30.711a4.692,4.692,0,0,1-3.895-2.084V10.857l1.964-.561a5.611,5.611,0,0,0,4.052-5.372V3.868a1.289,1.289,0,1,1,2.579,0v4.3A1.289,1.289,0,0,0,36.7,9.455H39.28A2.151,2.151,0,0,1,41.428,11.6Z" fill="#fff"/>
  <path id="Tracciato_47" data-name="Tracciato 47" d="M61.289,254.579h8.6a1.289,1.289,0,1,0,0-2.579h-8.6a1.289,1.289,0,1,0,0,2.579Z" transform="translate(-54.843 -230.34)" fill="#fff"/>
  <path id="Tracciato_48" data-name="Tracciato 48" d="M83.636,312H61.289a1.289,1.289,0,1,0,0,2.578H83.636a1.289,1.289,0,1,0,0-2.578Z" transform="translate(-54.843 -285.183)" fill="#fff"/>
  <path id="Tracciato_49" data-name="Tracciato 49" d="M83.636,372H61.289a1.289,1.289,0,0,0,0,2.579H83.636a1.289,1.289,0,0,0,0-2.579Z" transform="translate(-54.843 -340.026)" fill="#fff"/>
</svg>
