<svg xmlns="http://www.w3.org/2000/svg" width="27.395" height="22.766" viewBox="0 0 27.395 22.766">
  <g id="exit" transform="translate(0 -43.255)">
    <g id="Raggruppa_71" data-name="Raggruppa 71" transform="translate(0 43.255)">
      <g id="Raggruppa_70" data-name="Raggruppa 70">
        <path id="Tracciato_67" data-name="Tracciato 67" d="M7.636,56.626,2.607,50.869l5.029-5.757a1.12,1.12,0,1,0-1.687-1.473L.277,50.132a1.119,1.119,0,0,0,0,1.473L5.949,58.1a1.12,1.12,0,0,0,1.687-1.473Z" transform="translate(0 -43.255)" fill="#fff"/>
      </g>
    </g>
    <g id="Raggruppa_73" data-name="Raggruppa 73" transform="translate(0 49.749)">
      <g id="Raggruppa_72" data-name="Raggruppa 72">
        <path id="Tracciato_68" data-name="Tracciato 68" d="M19.258,164.619H1.12a1.12,1.12,0,1,0,0,2.239H19.258a5.9,5.9,0,1,1,0,11.794H2.613a1.12,1.12,0,0,0,0,2.239H19.258a8.136,8.136,0,1,0,0-16.272Z" transform="translate(0 -164.619)" fill="#fff"/>
      </g>
    </g>
  </g>
</svg>
