<svg id="genres_icon" xmlns="http://www.w3.org/2000/svg" width="27.606" height="21.961" viewBox="0 0 27.606 21.961">
  <path id="Tracciato_54" data-name="Tracciato 54" d="M0,6.109H6.109V0H0ZM1.618,1.618H4.491V4.491H1.618Zm0,0" fill="#fff"/>
  <path id="Tracciato_55" data-name="Tracciato 55" d="M149.3,0V6.109h19.556V0Zm17.939,4.491H150.915V1.618h16.321Zm0,0" transform="translate(-141.247)" fill="#fff"/>
  <path id="Tracciato_56" data-name="Tracciato 56" d="M0,153.117H6.109v-6.109H0Zm1.618-4.491H4.491V151.5H1.618Zm0,0" transform="translate(0 -139.082)" fill="#fff"/>
  <path id="Tracciato_57" data-name="Tracciato 57" d="M149.3,153.117h19.556v-6.109H149.3Zm1.618-4.491h16.321V151.5H150.915Zm0,0" transform="translate(-141.247 -139.082)" fill="#fff"/>
  <path id="Tracciato_58" data-name="Tracciato 58" d="M0,300.121H6.109v-6.109H0Zm1.618-4.491H4.491V298.5H1.618Zm0,0" transform="translate(0 -278.159)" fill="#fff"/>
  <path id="Tracciato_59" data-name="Tracciato 59" d="M149.3,300.121h19.556v-6.109H149.3Zm1.618-4.491h16.321V298.5H150.915Zm0,0" transform="translate(-141.247 -278.159)" fill="#fff"/>
</svg>
