<svg xmlns="http://www.w3.org/2000/svg" width="21.28" height="21.282" viewBox="0 0 21.28 21.282">
  <path id="home" d="M21.208,9.256l0,0L12.525.573a1.959,1.959,0,0,0-2.771,0L1.078,9.25l-.009.009a1.958,1.958,0,0,0,1.3,3.338l.061,0h.346v6.389a2.3,2.3,0,0,0,2.293,2.293h3.4a.624.624,0,0,0,.624-.624V15.649A1.047,1.047,0,0,1,10.138,14.6h2a1.047,1.047,0,0,1,1.046,1.046v5.009a.624.624,0,0,0,.624.624h3.4A2.3,2.3,0,0,0,19.5,18.989V12.6h.321a1.96,1.96,0,0,0,1.387-3.344Zm-.883,1.888a.708.708,0,0,1-.5.209h-.944a.623.623,0,0,0-.624.624v7.012a1.047,1.047,0,0,1-1.046,1.046H14.435V15.649a2.3,2.3,0,0,0-2.293-2.293h-2a2.3,2.3,0,0,0-2.293,2.293v4.385H5.072a1.047,1.047,0,0,1-1.046-1.046V11.976a.623.623,0,0,0-.624-.624H2.445a.711.711,0,0,1-.491-1.215h0l8.681-8.681a.712.712,0,0,1,1.007,0l8.679,8.679,0,0a.714.714,0,0,1,0,1.006Zm0,0" transform="translate(-0.5 0.001)" fill="#fff"/>
</svg>
