<svg id="to-do-list" xmlns="http://www.w3.org/2000/svg" width="98.973" height="110.643" viewBox="0 0 98.973 110.643">
  <path id="Tracciato_37" data-name="Tracciato 37" d="M86.439,0H12.534A12.548,12.548,0,0,0,0,12.534V92.49a6.49,6.49,0,0,0,6.483,6.483H34.864a2.161,2.161,0,1,0,0-4.322H6.483A2.163,2.163,0,0,1,4.322,92.49V12.534a8.221,8.221,0,0,1,8.212-8.212H76.982a12.479,12.479,0,0,0-3.077,8.212V82.175a3.616,3.616,0,0,1-7.046,1.144L63.6,73.547A6.745,6.745,0,0,0,50.459,75.68v1.683h-11.2a2.161,2.161,0,1,0,0,4.322h11.2V92.436a23.912,23.912,0,0,0,1.85,9.247l3.179,7.63a2.161,2.161,0,1,0,3.989-1.662L56.3,100.02a19.621,19.621,0,0,1-1.517-7.584V75.68a2.423,2.423,0,0,1,4.721-.766l3.257,9.772a7.938,7.938,0,0,0,15.468-2.51V45.125l2.888,2.882A27.035,27.035,0,0,1,89.1,67.27V90.242a40.664,40.664,0,0,1-3.9,17.313,2.161,2.161,0,0,0,3.9,1.852,45.014,45.014,0,0,0,4.314-19.165V67.27a31.33,31.33,0,0,0-9.259-22.322l-5.941-5.93V36.953H92.49a6.49,6.49,0,0,0,6.483-6.483V12.534A12.548,12.548,0,0,0,86.439,0Zm8.212,30.47a2.164,2.164,0,0,1-2.161,2.161H78.227v-20.1a8.212,8.212,0,0,1,16.424,0Zm0,0" fill="#fff"/>
  <path id="Tracciato_38" data-name="Tracciato 38" d="M197.161,438a2.162,2.162,0,1,0,1.528.633A2.177,2.177,0,0,0,197.161,438Zm0,0" transform="translate(-152.861 -343.345)" fill="#fff"/>
  <path id="Tracciato_39" data-name="Tracciato 39" d="M71.82,58.322A4.327,4.327,0,0,0,67.5,54H57.99a4.327,4.327,0,0,0-4.322,4.322V67.83a4.327,4.327,0,0,0,4.322,4.322H67.5A4.327,4.327,0,0,0,71.82,67.83ZM67.5,67.83H57.99V58.322H67.5l0,9.508Zm0,0" transform="translate(-42.07 -42.331)" fill="#fff"/>
  <path id="Tracciato_40" data-name="Tracciato 40" d="M71.82,178.322A4.327,4.327,0,0,0,67.5,174H57.99a4.327,4.327,0,0,0-4.322,4.322v9.508a4.327,4.327,0,0,0,4.322,4.322H67.5a4.327,4.327,0,0,0,4.322-4.322ZM67.5,187.83H57.99v-9.508H67.5l0,9.508Zm0,0" transform="translate(-42.07 -136.399)" fill="#fff"/>
  <path id="Tracciato_41" data-name="Tracciato 41" d="M67.5,294H57.99a4.326,4.326,0,0,0-4.322,4.322v9.508a4.326,4.326,0,0,0,4.322,4.322H67.5a4.327,4.327,0,0,0,4.322-4.322v-9.508A4.327,4.327,0,0,0,67.5,294Zm0,13.83H57.99v-9.508H67.5l0,9.508Zm0,0" transform="translate(-42.07 -230.467)" fill="#fff"/>
  <path id="Tracciato_42" data-name="Tracciato 42" d="M234.453,122.322a2.161,2.161,0,1,0,0-4.322h-14.9a2.161,2.161,0,1,0,0,4.322Zm0,0" transform="translate(-170.416 -92.5)" fill="#fff"/>
  <path id="Tracciato_43" data-name="Tracciato 43" d="M173.829,122.322a2.162,2.162,0,1,0-1.528-.633A2.177,2.177,0,0,0,173.829,122.322Zm0,0" transform="translate(-134.571 -92.5)" fill="#fff"/>
  <path id="Tracciato_44" data-name="Tracciato 44" d="M173.825,242.322H198.6a2.161,2.161,0,0,0,0-4.322h-24.78a2.161,2.161,0,0,0,0,4.322Zm0,0" transform="translate(-134.568 -186.568)" fill="#fff"/>
</svg>
