<svg xmlns="http://www.w3.org/2000/svg" width="19.341" height="23.183" viewBox="0 0 19.341 23.183">
  <g id="user_icon" transform="translate(0 0)">
    <path id="Tracciato_64" data-name="Tracciato 64" d="M92.615,11.167a5.4,5.4,0,0,0,3.948-1.636A5.4,5.4,0,0,0,98.2,5.584a5.4,5.4,0,0,0-1.636-3.948,5.582,5.582,0,0,0-7.9,0,5.4,5.4,0,0,0-1.636,3.948,5.4,5.4,0,0,0,1.636,3.948A5.4,5.4,0,0,0,92.615,11.167Zm0,0" transform="translate(-83.091 0)" fill="#fff"/>
    <path id="Tracciato_65" data-name="Tracciato 65" d="M19.294,253.944a13.792,13.792,0,0,0-.188-1.465,11.541,11.541,0,0,0-.36-1.473,7.275,7.275,0,0,0-.605-1.374,5.184,5.184,0,0,0-.913-1.19,4.025,4.025,0,0,0-1.311-.824,4.532,4.532,0,0,0-1.674-.3,1.7,1.7,0,0,0-.908.385c-.272.177-.59.383-.945.609a5.417,5.417,0,0,1-1.223.539,4.75,4.75,0,0,1-2.992,0,5.4,5.4,0,0,1-1.222-.539c-.352-.225-.67-.43-.946-.61a1.7,1.7,0,0,0-.907-.385,4.526,4.526,0,0,0-1.674.3,4.022,4.022,0,0,0-1.312.824,5.184,5.184,0,0,0-.913,1.19,7.289,7.289,0,0,0-.605,1.374,11.569,11.569,0,0,0-.36,1.473,13.742,13.742,0,0,0-.188,1.465c-.031.444-.046.9-.046,1.369a3.85,3.85,0,0,0,1.143,2.912A4.116,4.116,0,0,0,4.089,259.3H15.252a4.115,4.115,0,0,0,2.946-1.075,3.848,3.848,0,0,0,1.143-2.913c0-.467-.016-.928-.047-1.369Zm0,0" transform="translate(0 -236.118)" fill="#fff"/>
  </g>
</svg>
